# xmcd
#
# Track frame offsets: 
#        150
#        14947
#        44090
#        64378
#        94170
#        112723
#        131245
#        155551
#        179242
#        201124
#        224045
#
# Disc length: 3323 seconds
#
# Revision: 0
# Processed by: cddbd v1.5.2PL0 Copyright (c) Steve Scherf et al.
# Submitted via: ExactAudioCopy v0.99pb3
#
DISCID=b60cf90b
DTITLE=Tas Cru - Gravi-Tas
DYEAR=1900
DGENRE=Blues
TTITLE0=That's Gravy
TTITLE1=12 Step Woman
TTITLE2=Feel I'm Fallin
TTITLE3=Can't Help But Wonder
TTITLE4=Cover My Love
TTITLE5=Peach Pickin
TTITLE6=Crazy Mean Woman
TTITLE7=What Makes A Woman
TTITLE8=Ike's Mojo
TTITLE9=Drunk and High
TTITLE10=Too Much Information
EXTD=
EXTT0=
EXTT1=
EXTT2=
EXTT3=
EXTT4=
EXTT5=
EXTT6=
EXTT7=
EXTT8=
EXTT9=
EXTT10=
PLAYORDER=
